<?xml version="1.0" encoding="utf-8" standalone="yes"?>
<!DOCTYPE svg PUBLIC "-//W3C//DTD SVG 1.1//EN" "http://www.w3.org/Graphics/SVG/1.1/DTD/svg11.dtd">
<svg width="696" height="477" viewBox="0 0 696 477" style="fill:none;stroke:none;fill-rule:evenodd;clip-rule:evenodd;stroke-linecap:round;stroke-linejoin:round;stroke-miterlimit:1.5;" version="1.1" xmlns="http://www.w3.org/2000/svg" xmlns:xlink="http://www.w3.org/1999/xlink"><style class="text-font-style fontImports" data-font-family="Roboto">@import url('https://fonts.googleapis.com/css2?family=Roboto:wght@400;700&amp;display=block');</style><g id="items" style="isolation: isolate"><g id="blend" style="mix-blend-mode: normal"><g id="g-root-0.cr-big_cr_dkgk0g104ydc0-fill" data-item-order="-105441" transform="translate(278, 179)"><g id="0.cr-big_cr_dkgk0g104ydc0-fill" stroke="none" fill="#ffffff"><g><path d="M 10 70C 10.000003 103.137088 36.862918 130.000003 70.000003 130.000003C 103.137088 130.000003 130.000003 103.137088 130.000003 70.000003C 130.000003 36.862918 103.137088 10.000003 70.000003 10.000003C 36.862918 10.000003 10.000003 36.862918 10.000003 70.000003"></path></g></g></g><g id="g-root-8.cu_sy_1qf3kgg104yccp-fill" data-item-order="-105437" transform="translate(236.1767578125, 76.63916015625)"><g id="8.cu_sy_1qf3kgg104yccp-fill" stroke="none" fill="#ffffff"><g><path d="M 69.397 129.939L 10 70.5417C 39.4074 41.1342 74.5477 20.9537 111.823 10L 111.823 112.365C 96.4681 112.365 81.1127 118.223 69.397 129.939Z"></path></g></g></g><g id="g-root-7.cu_sy_1lza2c0104yd4y-fill" data-item-order="-105433" transform="translate(194.00189208984375, 124.194091796875)"><g id="7.cu_sy_1lza2c0104yd4y-fill" stroke="none" fill="#ffffff"><g><path d="M 94 124.809L 10 124.809C 9.999999 83.221 20.5781 44.1033 39.1906 10L 111.574 82.383C 100.7157 93.2408 94 108.2408 94 124.809Z"></path></g></g></g><g id="g-root-6.cu_sy_1d3n234104ydxn-fill" data-item-order="-105429" transform="translate(175.637451171875, 239.001953125)"><g id="6.cu_sy_1d3n234104ydxn-fill" stroke="none" fill="#ffffff"><g><path d="M 129.939 52.4263L 70.5417 111.823C 41.1342 82.4159 20.9537 47.2757 10 10.000006L 112.365 10C 112.365 25.3553 118.223 40.7106 129.939 52.4263Z"></path></g></g></g><g id="g-root-5.cu_sy_18egfo0104zq4k-fill" data-item-order="-105425" transform="translate(223.1923828125, 281.42626953125)"><g id="5.cu_sy_18egfo0104zq4k-fill" stroke="none" fill="#ffffff"><g><path d="M 124.809 27.5736L 124.809 111.574C 83.221 111.574 44.1033 100.9954 10 82.383L 82.383 10C 93.2408 20.8578 108.2408 27.5736 124.809 27.5736Z"></path></g></g></g><g id="g-root-4.cu_sy_zitff4104zqx9-fill" data-item-order="-105421" transform="translate(338.00018310546875, 281.42578125)"><g id="4.cu_sy_zitff4104zqx9-fill" stroke="none" fill="#ffffff"><g><path d="M 52.4264 10L 111.823 69.3969C 82.4159 98.8043 47.2757 118.985 10 129.939L 10.000001 27.5736C 25.3553 27.5736 40.7106 21.7157 52.4264 10Z"></path></g></g></g><g id="g-root-3.cu_sy_v2zxao104zrpi-fill" data-item-order="-105417" transform="translate(380.42462158203125, 239)"><g id="3.cu_sy_v2zxao104zrpi-fill" stroke="none" fill="#ffffff"><g><path d="M 27.5736 10.00009L 111.574 10C 111.574 51.5884 100.9954 90.7061 82.383 124.809L 10 52.4265C 20.8578 41.5686 27.5736 26.5686 27.5736 10.00009Z"></path></g></g></g><g id="g-root-2.cu_sy_m7cx1s104zsi7-fill" data-item-order="-105413" transform="translate(380.42388916015625, 137.17822265625)"><g id="2.cu_sy_m7cx1s104zsi7-fill" stroke="none" fill="#ffffff"><g><path d="M 10 69.397L 69.3969 10C 98.8043 39.4074 118.985 74.5477 129.939 111.823L 27.5736 111.823C 27.5736 96.4681 21.7157 81.1127 10 69.397Z"></path></g></g></g><g id="g-root-1.cu_sy_hs5w0g104zq4o-fill" data-item-order="-105409" transform="translate(337.99822998046875, 95.00341796875)"><g id="1.cu_sy_hs5w0g104zq4o-fill" stroke="none" fill="#ffffff"><g><path d="M 10.00009 94L 10 10C 51.5884 10.000002 90.7061 20.5781 124.809 39.1906L 52.4265 111.574C 41.5686 100.7157 26.5686 94 10.00009 94Z"></path></g></g></g><g id="g-root-head_htexcg104eolf-fill" data-item-order="0" transform="translate(280.97216796875, 126.761962890625)"></g><g id="g-root-lock_1480500104ojcy-fill" data-item-order="0" transform="translate(359.03985595703125, 126.766845703125)"></g><g id="g-root-tx_profesio_1q6d0eo104rabw-fill" data-item-order="0" transform="translate(14, 155)"><g id="tx_profesio_1q6d0eo104rabw-fill" stroke="none" fill="#484848"><g><text style="font: 20px Roboto, sans-serif; white-space: pre;" font-size="20px" font-family="Roboto, sans-serif"><tspan x="14.91" y="34" dominant-baseline="ideographic">Profesionales de </tspan><tspan x="13.31" y="58" dominant-baseline="ideographic">Marketing Digital</tspan></text></g></g></g><g id="g-root-tx_analista_1lsexjk104ra4h-fill" data-item-order="0" transform="translate(506, 155)"><g id="tx_analista_1lsexjk104ra4h-fill" stroke="none" fill="#484848"><g><text style="font: 20px Roboto, sans-serif; white-space: pre;" font-size="20px" font-family="Roboto, sans-serif"><tspan x="12" y="34" dominant-baseline="ideographic">Analistas de </tspan><tspan x="12" y="58" dominant-baseline="ideographic">Datos</tspan></text></g></g></g><g id="g-root-lapt_1414x1s104g45o-fill" data-item-order="0" transform="translate(225.76678466796875, 181.96044921875)"></g><g id="g-root-time_93e6vk104n2fd-fill" data-item-order="0" transform="translate(414.23834228515625, 181.97216796875)"></g><g id="g-root-pick_1q6zec0104zpxm-fill" data-item-order="0" transform="translate(302, 202.99609375)"></g><g id="g-root-tx_ejecutiv_18f2zww104rcp1-fill" data-item-order="0" transform="translate(38, 263)"><g id="tx_ejecutiv_18f2zww104rcp1-fill" stroke="none" fill="#484848"><g><text style="font: 20px Roboto, sans-serif; white-space: pre;" font-size="20px" font-family="Roboto, sans-serif"><tspan x="22.22" y="34" dominant-baseline="ideographic">Ejecutivos de </tspan><tspan x="62.45" y="58" dominant-baseline="ideographic">Cuenta y </tspan><tspan x="33.95" y="82" dominant-baseline="ideographic">Vendedores</tspan></text></g></g></g><g id="g-root-moni_3dv0w104hj4d-fill" data-item-order="0" transform="translate(225.76190185546875, 260.02783203125)"></g><g id="g-root-code_1d0irtc104lqmg-fill" data-item-order="0" transform="translate(414.23297119140625, 260.0400390625)"></g><g id="g-root-tx_especial_18gyf68104rbpe-fill" data-item-order="0" transform="translate(398, 35)"><g id="tx_especial_18gyf68104rbpe-fill" stroke="none" fill="#484848"><g><text style="font: 20px Roboto, sans-serif; white-space: pre;" font-size="20px" font-family="Roboto, sans-serif"><tspan x="12" y="34" dominant-baseline="ideographic">Especialistas en </tspan><tspan x="12" y="58" dominant-baseline="ideographic">Ciberseguridad</tspan></text></g></g></g><g id="g-root-tx_diseador_8xrx3k104rabz-fill" data-item-order="0" transform="translate(398, 395)"><g id="tx_diseador_8xrx3k104rabz-fill" stroke="none" fill="#484848"><g><text style="font: 20px Roboto, sans-serif; white-space: pre;" font-size="20px" font-family="Roboto, sans-serif"><tspan x="12" y="34" dominant-baseline="ideographic">Diseñadores </tspan><tspan x="12" y="58" dominant-baseline="ideographic">UX/UI</tspan></text></g></g></g><g id="g-root-tx_desarrol_24wuo104rbwg-fill" data-item-order="0" transform="translate(506, 275)"><g id="tx_desarrol_24wuo104rbwg-fill" stroke="none" fill="#484848"><g><text style="font: 20px Roboto, sans-serif; white-space: pre;" font-size="20px" font-family="Roboto, sans-serif"><tspan x="12" y="34" dominant-baseline="ideographic">Desarrolladores </tspan><tspan x="12" y="58" dominant-baseline="ideographic">de Software</tspan></text></g></g></g><g id="g-root-woma_qrjtxs104ivie-fill" data-item-order="0" transform="translate(280.96038818359375, 315.2333984375)"></g><g id="g-root-app_1luwtw0104ka9z-fill" data-item-order="0" transform="translate(359.02764892578125, 315.23828125)"></g><g id="g-root-tx_pickeryp_m8lyds104rbwu-fill" data-item-order="0" transform="translate(158, 395)"><g id="tx_pickeryp_m8lyds104rbwu-fill" stroke="none" fill="#484848"><g><text style="font: 20px Roboto, sans-serif; white-space: pre;" font-size="20px" font-family="Roboto, sans-serif"><tspan x="58.3" y="34" dominant-baseline="ideographic">Picker y </tspan><tspan x="17.63" y="58" dominant-baseline="ideographic">Preventistas</tspan></text></g></g></g><g id="g-root-tx_instrume_4g2zps104rc3v-fill" data-item-order="0" transform="translate(110, 11)"><g id="tx_instrume_4g2zps104rc3v-fill" stroke="none" fill="#484848"><g><text style="font: 20px Roboto, sans-serif; white-space: pre;" font-size="20px" font-family="Roboto, sans-serif"><tspan x="18.03" y="34" dominant-baseline="ideographic">Instrumentadores </tspan><tspan x="59.23" y="58" dominant-baseline="ideographic">Quirúrgicos y </tspan><tspan x="73.03" y="82" dominant-baseline="ideographic">Enfermeros</tspan></text></g></g></g><g id="g-root-0.cr-big_cr_dkgk0g104ydc0-stroke" data-item-order="-105441" transform="translate(278, 179)"><g id="0.cr-big_cr_dkgk0g104ydc0-stroke" fill="none" stroke-linecap="round" stroke-linejoin="round" stroke-miterlimit="4" stroke="#484848" stroke-width="4"><g><path d="M 10 70C 10.8 86 15.8 101 26.4 111.3C 37.9 122.3 52.9 128.5 70 130C 103 133 131.7 103.1 130 70C 129.2 54.4 125.2 38.8 114.2 29.4C 101.8 18.9 87.4 8 70 10C 37.1 13.7 10.7 36.9 10 70"></path><path d="M 10 70C 10.000003 103.137088 36.862918 130.000003 70.000003 130.000003C 103.137088 130.000003 130.000003 103.137088 130.000003 70.000003C 130.000003 36.862918 103.137088 10.000003 70.000003 10.000003C 36.862918 10.000003 10.000003 36.862918 10.000003 70.000003"></path></g></g></g><g id="g-root-8.cu_sy_1qf3kgg104yccp-stroke" data-item-order="-105437" transform="translate(236.1767578125, 76.63916015625)"><g id="8.cu_sy_1qf3kgg104yccp-stroke" fill="none" stroke-linecap="round" stroke-linejoin="round" stroke-miterlimit="4" stroke="#484848" stroke-width="4"><g><path d="M 69.423242 129.960825C 50.823242 109.060825 29.423242 90.660825 10.023242 70.560825C 23.323242 56.060825 38.523242 43.760825 55.223242 34.960825C 73.823242 25.260825 92.823242 17.660825 111.823242 9.960825C 113.423242 44.060825 113.423242 78.260825 111.823242 112.360825C 96.523242 111.360825 80.823242 117.960825 69.423242 129.960825"></path><path d="M 69.397 129.9386L 10 70.5417C 39.4074 41.1342 74.5477 20.9537 111.8234 10L 111.8234 112.365C 96.4681 112.365 81.1127 118.2228 69.397 129.9386Z"></path></g></g></g><g id="g-root-7.cu_sy_1lza2c0104yd4y-stroke" data-item-order="-105433" transform="translate(194.00189208984375, 124.194091796875)"><g id="7.cu_sy_1lza2c0104yd4y-stroke" fill="none" stroke-linecap="round" stroke-linejoin="round" stroke-miterlimit="4" stroke="#484848" stroke-width="4"><g><path d="M 93.998108 124.805908C 66.098108 126.705908 37.998108 125.205908 9.998108 124.805908C 8.898108 102.305908 13.498108 80.705908 18.898108 59.905908C 23.398108 42.305908 31.898108 26.305908 39.198108 10.005908C 45.798108 19.305908 56.698108 25.005908 63.398108 34.205908C 69.898108 43.205908 77.998108 51.205908 86.998108 57.805908C 96.398108 64.605908 103.998108 73.505908 111.598108 82.405908C 100.698108 93.205908 94.298108 108.205908 93.998108 124.805908"></path><path d="M 94 124.8093L 10 124.8094C 10 83.221 20.5781 44.1033 39.1906 10L 111.5735 82.383C 100.7157 93.2408 94 108.2408 94 124.8093Z"></path></g></g></g><g id="g-root-6.cu_sy_1d3n234104ydxn-stroke" data-item-order="-105429" transform="translate(175.637451171875, 239.001953125)"><g id="6.cu_sy_1d3n234104ydxn-stroke" fill="none" stroke-linecap="round" stroke-linejoin="round" stroke-miterlimit="4" stroke="#484848" stroke-width="4"><g><path d="M 129.962549 52.398291C 109.162549 71.198291 91.662549 93.498291 70.562549 111.798291C 41.262549 82.298291 20.562549 47.398291 9.962549 9.998291C 44.162549 9.098291 78.262549 11.898291 112.362549 9.998291C 111.762549 25.298291 118.162549 40.798291 129.962549 52.398291"></path><path d="M 129.9386 52.4263L 70.5417 111.8234C 41.1342 82.4159 20.9537 47.2757 10 10L 112.365 10C 112.365 25.3553 118.2228 40.7106 129.9386 52.4263Z"></path></g></g></g><g id="g-root-5.cu_sy_18egfo0104zq4k-stroke" data-item-order="-105425" transform="translate(223.1923828125, 281.42626953125)"><g id="5.cu_sy_18egfo0104zq4k-stroke" fill="none" stroke-linecap="round" stroke-linejoin="round" stroke-miterlimit="4" stroke="#484848" stroke-width="4"><g><path d="M 124.807617 27.573669C 124.807617 40.673669 124.707617 53.673669 124.807617 66.773669C 125.007617 81.673669 124.107617 96.673669 124.807617 111.573669C 104.007617 110.873669 83.807617 109.173669 64.607617 103.973669C 45.407617 98.673669 27.707617 90.273669 10.007617 82.373669C 22.907617 72.173669 33.707617 59.573669 44.807617 47.573669C 56.807617 34.573669 70.207617 22.873669 82.407617 9.973669C 93.407617 20.673669 108.307617 28.973669 124.807617 27.573669"></path><path d="M 124.8093 27.5736L 124.8094 111.5735C 83.221 111.5735 44.1033 100.9954 10 82.383L 82.383 10C 93.2408 20.8578 108.2408 27.5736 124.8093 27.5736Z"></path></g></g></g><g id="g-root-4.cu_sy_zitff4104zqx9-stroke" data-item-order="-105421" transform="translate(338.00018310546875, 281.42578125)"><g id="4.cu_sy_zitff4104zqx9-stroke" fill="none" stroke-linecap="round" stroke-linejoin="round" stroke-miterlimit="4" stroke="#484848" stroke-width="4"><g><path d="M 52.399817 9.974371C 62.999817 19.174371 72.199817 29.774371 82.099817 39.674371C 91.999817 49.574371 102.099817 59.374371 111.799817 69.374371C 82.999817 99.374371 47.199817 118.774371 9.999817 129.974371C 8.799817 114.474371 9.899817 98.974371 9.999817 83.474371C 10.099817 64.774371 10.999817 46.174371 9.999817 27.574371C 25.399817 28.174371 40.399817 21.374371 52.399817 9.974371"></path><path d="M 52.4264 10L 111.8234 69.3969C 82.4159 98.8043 47.2757 118.9849 10 129.9386L 10 27.5736C 25.3553 27.5736 40.7106 21.7157 52.4264 10Z"></path></g></g></g><g id="g-root-3.cu_sy_v2zxao104zrpi-stroke" data-item-order="-105417" transform="translate(380.42462158203125, 239)"><g id="3.cu_sy_v2zxao104zrpi-stroke" fill="none" stroke-linecap="round" stroke-linejoin="round" stroke-miterlimit="4" stroke="#484848" stroke-width="4"><g><path d="M 27.575378 10.000122C 55.575378 10.400122 83.575378 11.000122 111.575378 10.000122C 112.975378 24.700122 108.875378 39.000122 107.675378 53.200122C 106.575378 66.400122 103.275378 79.400122 97.575378 91.000122C 92.075378 102.200122 87.875378 113.800122 82.375378 124.800122C 71.675378 113.000122 59.275378 103.000122 48.675378 91.100122C 36.575378 77.500122 22.675378 65.500122 9.975378 52.400122C 20.475378 41.200122 28.275378 26.600122 27.575378 10.000122"></path><path d="M 27.5736 10.0001L 111.5736 10C 111.5736 51.5884 100.9954 90.7061 82.383 124.8094L 10 52.4265C 20.8578 41.5686 27.5736 26.5686 27.5736 10.0001Z"></path></g></g></g><g id="g-root-2.cu_sy_m7cx1s104zsi7-stroke" data-item-order="-105413" transform="translate(380.42388916015625, 137.17822265625)"><g id="2.cu_sy_m7cx1s104zsi7-stroke" fill="none" stroke-linecap="round" stroke-linejoin="round" stroke-miterlimit="4" stroke="#484848" stroke-width="4"><g><path d="M 9.976111 69.421747C 30.676111 50.521747 49.976111 30.221747 69.376111 10.021747C 83.276111 25.621747 94.976111 42.121747 106.776111 58.221747C 118.376111 74.221747 126.276111 92.821747 129.976111 111.821747C 95.876111 112.721747 61.676111 111.821747 27.576111 111.821747C 26.076111 96.521747 21.576111 81.321747 9.976111 69.421747"></path><path d="M 10 69.397L 69.3969 10C 98.8043 39.4074 118.9849 74.5477 129.9386 111.8234L 27.5736 111.8234C 27.5736 96.4681 21.7157 81.1127 10 69.397Z"></path></g></g></g><g id="g-root-1.cu_sy_hs5w0g104zq4o-stroke" data-item-order="-105409" transform="translate(337.99822998046875, 95.00341796875)"><g id="1.cu_sy_hs5w0g104zq4o-stroke" fill="none" stroke-linecap="round" stroke-linejoin="round" stroke-miterlimit="4" stroke="#484848" stroke-width="4"><g><path d="M 10.00177 93.996567C 10.10177 65.996567 9.10177 37.996567 10.00177 9.996567C 29.20177 8.196567 48.60177 10.496567 66.00177 16.596567C 86.20177 23.596567 106.30177 29.696567 124.80177 39.196567C 112.60177 52.396567 99.70177 64.896567 86.70177 77.296567C 75.00177 88.496567 63.20177 99.496567 52.40177 111.596567C 42.60177 99.796567 26.50177 94.696567 10.00177 93.996567"></path><path d="M 10.0001 94L 10 10C 51.5884 10 90.7061 20.5781 124.8094 39.1906L 52.4265 111.5736C 41.5686 100.7157 26.5686 94 10.0001 94Z"></path></g></g></g><g id="g-root-head_htexcg104eolf-stroke" data-item-order="0" transform="translate(280.97216796875, 126.761962890625)"><g id="head_htexcg104eolf-stroke" fill="none" stroke-linecap="round" stroke-linejoin="round" stroke-miterlimit="4" stroke="#4f92ff" stroke-width="2"><g><path d="M 40.599998 44.5C 41.349998 42.699997 40.75 40.449997 40.599998 38.349998C 40.449997 35.050003 38.650002 32.349998 36.849998 29.5C 35.050003 26.650002 31.150002 24.849998 28 25.75C 24.849998 26.799999 21.25 26.950001 19.15 29.5C 16.9 32.049999 14.8 35.199997 15.4 38.349998C 16.15 41.800003 18.25 44.949997 21.549999 44.5C 24.549999 44.349998 27.400002 44.800003 30.400002 44.5M 30.25 44.5C 32.349998 44.349998 34.75 42.849998 34 40.900002C 33.25 39.099998 32.349998 37.150002 30.25 37.300003C 29.650002 37.300003 29.049999 37.449997 28.450001 37.300003M 28 25.75C 31.900002 26.5 36.400002 22.450001 35.199997 18.549999C 33.849998 14.8 31.900002 12.4 28 11.5C 24.099998 10.45 19.75 14.8 20.799999 18.549999C 21.85 22.450001 24.25 27.25 28 25.75M 10 10M 22.450001 37.300003C 21.85 37.300003 21.1 37.150002 20.5 37.300003M 10 10M 26.650002 25.900002C 26.950001 32.200001 28.599998 38.349998 29.5 44.5C 27.099998 44.949997 24.849998 44.650002 22.450001 44.5C 24.25 38.949997 24.099998 32.650002 22.450001 27.099998C 23.799999 26.5 25.150002 26.200001 26.650002 25.900002M 10 10M 21.1 19.6C 25 17.200001 29.349998 15.55 33.849998 15.1M 23.799999 13.15C 25 14.65 27.400002 15.1 28.75 16.75M 10 10M 22.599998 44.349998C 22.900002 40 26.200001 36.400002 27.400002 32.349998"></path><path d="M 40.58215 44.570648L 40.58215 38.39185C 40.58215 35.054951 39.256599 31.854549 36.89695 29.4949C 34.5373 27.13525 31.336899 25.8097 28 25.8097C 24.662933 25.8097 21.462595 27.13525 19.102974 29.4949C 16.743355 31.854549 15.41773 35.054951 15.41773 38.39185L 15.41773 38.39185C 15.41773 41.804352 18.184015 44.570648 21.596395 44.570648L 30.330849 44.570648M 30.2911 44.570801C 32.307549 44.570801 33.942249 42.9361 33.942249 40.919651C 33.942249 38.903049 32.307549 37.268501 30.2911 37.268501L 28.421801 37.268501M 27.999699 25.80895C 31.970501 25.80895 35.189499 22.589994 35.189499 18.619165C 35.189499 14.64832 31.970501 11.429321 27.999699 11.429321C 24.028811 11.429321 20.809811 14.64832 20.809811 18.619165C 20.809811 22.589994 24.028811 25.80895 27.999699 25.80895ZM 10 10M 22.421875 37.268501L 20.529116 37.26865M 10 10M 26.59705 25.888L 29.437901 44.570503L 22.497866 44.570503L 22.497866 27.07645C 23.780682 26.4526 25.1665 26.0485 26.59705 25.888ZM 10 10M 21.146725 19.547424L 33.911652 15.14416M 23.766594 13.082035L 28.727499 16.76029M 10 10M 22.629879 44.381351L 27.465401 32.330799"></path></g></g></g><g id="g-root-lock_1480500104ojcy-stroke" data-item-order="0" transform="translate(359.03985595703125, 126.766845703125)"><g id="lock_1480500104ojcy-stroke" fill="none" stroke-linecap="round" stroke-linejoin="round" stroke-miterlimit="4" stroke="#4f92ff" stroke-width="2"><g><path d="M 10.75 36.25C 8.5 29.049999 11.95 21.1 10.75 13.75M 13.75 19.75C 13.6 23.200001 12.55 26.950001 13.75 30.25M 16.75 18.25C 16.6 22.75 16.9 27.25 16.75 31.75M 19.75 16.75C 20.35 22.150002 20.5 27.849998 19.75 33.25M 22.75 15.25C 23.5 21.700001 22.900002 28.299999 22.75 34.75M 40.75 24.25C 41.5 20.799999 41.199997 17.200001 40.75 13.75M 37.75 19.75C 37.75 21.25 37.900002 22.75 37.75 24.25M 34.75 18.25C 34.300003 20.5 34.900002 22.75 34.75 25M 31.75 16.75C 31.299999 21.25 31.150002 25.75 31.75 30.25M 28.75 15.25C 27.849998 21.700001 29.650002 28.299999 28.75 34.75M 25.75 10.75C 25.900002 20.200001 28.299999 30.099998 25.75 39.25M 33.25 33.25C 36.699997 32.950001 40.449997 34.300003 43.75 33.25C 43.75 33.25 45.699997 33.400002 45.25 34.75C 44.199997 37.599998 45.849998 40.75 45.25 43.75C 45.25 43.75 45.099998 44.800003 43.75 45.25C 40.449997 46.449997 36.550003 46.300003 33.25 45.25C 33.25 45.25 31.75 45.25 31.75 43.75C 31.599998 40.75 32.799999 37.599998 31.75 34.75C 31.75 34.75 31.75 32.950001 33.25 33.25M 36.699997 39.400002C 36.400002 40.300003 37.449997 41.199997 38.5 41.199997C 39.550003 41.349998 40 40.300003 40.449997 39.400002C 40.75 38.349998 39.550003 37.599998 38.5 37.449997C 37.449997 37.449997 37 38.349998 36.699997 39.400002M 42.25 31C 41.949997 28.900002 40.599998 26.799999 38.5 27.25C 36.400002 27.700001 35.199997 28.900002 34.75 31C 34.599998 31.75 34.599998 32.5 34.75 33.25C 37.150002 32.799999 39.849998 33.849998 42.25 33.25C 41.949997 32.5 42.400002 31.75 42.25 31M 10.75 36.251499L 10.75 13.7515M 13.75 19.751499L 13.75 30.251501M 16.75 18.251499L 16.75 31.751501M 19.75 16.751499L 19.75 33.251499M 22.75 15.2515L 22.75 34.751499M 40.75 24.245499L 40.75 13.7515M 37.75 19.751499L 37.75 24.224499M 34.75 18.251499L 34.75 24.9895M 31.75 16.751499L 31.75 30.2425M 28.75 15.2515L 28.75 34.751499M 25.75 10.7515L 25.75 39.251499M 33.25 33.251499L 43.75 33.251499C 43.75 33.251499 45.25 33.251499 45.25 34.751499L 45.25 43.75C 45.25 43.75 45.25 45.25 43.75 45.25L 33.25 45.25C 33.25 45.25 31.75 45.25 31.75 43.75L 31.75 34.751499C 31.75 34.751499 31.75 33.251499 33.25 33.251499M 36.625 39.344498C 36.625 40.380035 37.464466 41.219498 38.5 41.219498C 39.535534 41.219498 40.375 40.380035 40.375 39.344498C 40.375 38.308968 39.535534 37.469498 38.5 37.469498C 37.464466 37.469498 36.625 38.308968 36.625 39.344498M 42.25 31C 42.25 28.928932 40.571068 27.25 38.5 27.25C 36.428932 27.25 34.75 28.928932 34.75 31L 34.75 33.25L 42.25 33.25Z"></path></g></g></g><g id="g-root-tx_profesio_1q6d0eo104rabw-stroke" data-item-order="0" transform="translate(14, 155)"></g><g id="g-root-tx_analista_1lsexjk104ra4h-stroke" data-item-order="0" transform="translate(506, 155)"></g><g id="g-root-lapt_1414x1s104g45o-stroke" data-item-order="0" transform="translate(225.76678466796875, 181.96044921875)"><g id="lapt_1414x1s104g45o-stroke" fill="none" stroke-linecap="round" stroke-linejoin="round" stroke-miterlimit="4" stroke="#4f92ff" stroke-width="2"><g><path d="M 10.75 44.5C 10.45 38.650002 15.4 33.700001 21.25 34C 22.599998 34 23.950001 34 25 34.75M 24.25 44.5C 21.25 43.900002 18.25 44.349998 15.25 44.5M 21.25 37C 21.549999 37.900002 21.4 38.949997 21.25 40M 15.25 25.75C 15.7 29.049999 17.950001 32.5 21.25 31.75C 24.549999 31 28 29.049999 27.25 25.75C 26.5 22.450001 24.400002 20.65 21.25 19.75C 18.1 18.85 15.1 22.450001 15.25 25.75M 27.25 24.849998C 26.200001 25.599998 25 25.900002 23.799999 25.75C 20.950001 25.450001 17.65 24.400002 17.049999 21.549999M 27.25 11.5C 27.099998 12.55 27.099998 13.45 27.25 14.5M 28.75 13C 27.700001 13 26.650002 12.7 25.75 13M 43.75 25C 43.75 26.049999 43.900002 26.950001 43.75 28M 45.25 26.5C 44.349998 26.200001 43.300003 26.5 42.25 26.5M 39.25 14.5C 37.900002 14.35 36.400002 14.5 35.050003 14.5C 34 14.5 33.400002 14.8 33.25 16C 33.099998 17.950001 39.099998 20.049999 39.25 22C 39.400002 23.049999 38.349998 23.200001 37.449997 23.5C 36.099998 23.950001 34.599998 23.5 33.25 23.5M 36.25 14.5C 36.25 13.75 36.25 13 36.25 12.25M 36.25 25.75C 36.099998 25 36.099998 24.25 36.25 23.5M 28.450001 32.049999C 28.450001 31.450001 29.200001 30.849998 29.799999 31C 34.150002 31.900002 38.949997 29.799999 43.150002 31C 43.599998 31.150002 44.199997 31.150002 44.349998 31.599998C 44.5 32.049999 44.949997 32.650002 44.650002 32.950001C 42.25 36.25 42.849998 41.050003 40.75 44.5C 35.199997 44.650002 29.650002 45.25 24.25 44.5C 25.150002 40.150002 27.099998 36.25 28.450001 32.049999M 35.5 37.449997C 35.650002 37.449997 35.949997 37.599998 35.949997 37.75C 35.800003 37.900002 35.650002 38.199997 35.5 38.199997C 35.349998 38.199997 35.199997 37.900002 35.199997 37.75C 35.050003 37.599998 35.349998 37.449997 35.5 37.449997"></path><path d="M 10.75 44.5C 10.75 38.701012 15.45101 34 21.25 34C 22.53838 33.988342 23.815208 34.24371 24.999998 34.75M 24.256001 44.5L 15.2545 44.5M 21.256001 37L 21.256001 40M 15.256 25.75C 15.256 29.063709 17.942291 31.75 21.256001 31.75C 24.569708 31.75 27.256001 29.063709 27.256001 25.75C 27.256001 22.436291 24.569708 19.75 21.256001 19.75C 17.942291 19.75 15.256 22.436291 15.256 25.75ZM 27.1975 24.914499C 26.137936 25.475105 24.955168 25.762289 23.7565 25.75C 20.882107 25.750431 18.260311 24.108021 17.0065 21.5215M 27.256001 11.5L 27.256001 14.5M 28.756001 13L 25.756001 13M 43.756001 25L 43.756001 28M 45.256001 26.5L 42.256001 26.5M 39.25 14.5L 35.050003 14.5C 34.061501 14.5 33.260498 14.7895 33.260498 16C 33.260498 17.960501 39.260498 20.039499 39.260498 22C 39.260498 23.039499 38.459499 23.5 37.471001 23.5L 33.25 23.5M 36.256001 14.5L 36.256001 12.25M 36.256001 25.75L 36.256001 23.5M 28.414 32.026001C 28.618109 31.413185 29.191589 30.999844 29.837502 31L 43.174 31C 43.656166 30.999884 44.108994 31.231556 44.391014 31.622643C 44.673035 32.013729 44.749863 32.516541 44.5975 32.973999L 40.75 44.5L 24.25 44.5ZM 35.5 37.375C 35.707108 37.375 35.875 37.542892 35.875 37.75C 35.875 37.957108 35.707108 38.125 35.5 38.125C 35.292892 38.125 35.125 37.957108 35.125 37.75C 35.125 37.542892 35.292892 37.375 35.5 37.375"></path></g></g></g><g id="g-root-time_93e6vk104n2fd-stroke" data-item-order="0" transform="translate(414.23834228515625, 181.97216796875)"><g id="time_93e6vk104n2fd-stroke" fill="none" stroke-linecap="round" stroke-linejoin="round" stroke-miterlimit="4" stroke="#4f92ff" stroke-width="2"><g><path d="M 28.450001 11.2C 27.099998 15.1 34.449997 19.15 42.849998 18.85C 43.449997 18.700001 44.199997 18.85 44.949997 18.85M 44.949997 23.349998C 30.25 25.75 17.35 18.1 18.700001 12.1M 32.799999 27.400002C 19 29.049999 13.45 33.400002 11.65 38.349998M 26.650002 34.900002C 21.4 36.25 17.799999 39.699997 18.700001 42.699997M 43.449997 27.700001C 43.900002 27.549999 44.349998 27.549999 44.949997 27.700001M 11.2 16.450001C 9.1 21.25 18.549999 27.400002 32.799999 27.400002M 38.199997 44.949997C 41.800003 44.199997 45.400002 41.800003 44.949997 38.199997C 44.349998 34.449997 41.800003 31.299999 38.199997 31.450001C 34.449997 31.450001 30.549999 34.449997 31.450001 38.199997C 32.200001 41.800003 34.449997 44.650002 38.199997 44.949997M 38.199997 31.450001C 38.349998 33.700001 38.349998 35.949997 38.199997 38.199997C 40.300003 37.75 42.550003 37.300003 44.800003 37.449997"></path><path d="M 28.375 11.125C 28.375 15.325 34.375 18.775015 42.775002 18.775015L 44.875 18.775015M 44.875 23.27515C 30.025002 23.27515 18.625 18.17515 18.625 12.02515M 32.725151 27.325001C 18.925076 28.525002 11.575075 33.02515 11.575075 38.27515M 26.575001 34.824997C 21.625 36.775002 18.625 39.625 18.625 42.625M 43.375 27.625L 44.875 27.625M 11.125 16.375C 11.125 21.625 18.625 26.125 32.724998 27.325001M 38.125 44.875C 41.852951 44.875 44.875 41.852951 44.875 38.125C 44.875 34.397049 41.852951 31.375 38.125 31.375C 34.397049 31.375 31.375 34.397049 31.375 38.125C 31.375 41.852951 34.397049 44.875 38.125 44.875ZM 38.125 31.375L 38.125 38.125L 44.839901 37.439499"></path></g></g></g><g id="g-root-pick_1q6zec0104zpxm-stroke" data-item-order="0" transform="translate(302, 202.99609375)"><g id="pick_1q6zec0104zpxm-stroke" fill="none" stroke-linecap="round" stroke-linejoin="round" stroke-miterlimit="4" stroke="#4f92ff" stroke-width="2"><g><path d="M 35.800003 57.400002C 34.900002 62.800003 40.599998 67.300003 46 67.600006C 51.699997 67.600006 54.400002 62.800003 56.199997 57.400002C 58 52 51.699997 47.800003 46 47.199997C 40.599998 46.599998 37.599998 52 35.800003 57.400002M 30.400002 80.5C 32.200001 73.899994 38.800003 69.699997 45.699997 69.699997C 52.599998 69.399994 57.699997 74.199997 61.600002 79.899994M 18.700001 61C 19.6 64.600006 21.700001 68.199997 25.299999 67.600006C 28.900002 67 31 64.600006 31.900002 61C 32.5 57.400002 28.900002 55.300003 25.299999 54.400002C 21.700001 53.800003 19 57.400002 18.700001 61M 33.099998 75.699997C 31.599998 73.300003 28 72.699997 25.299999 73C 20.5 73.600006 15.4 75.399994 13.6 80.199997M 60.100002 61C 59.5 64.600006 63.399998 68.5 66.699997 67.600006C 70.300003 66.699997 72.399994 64.600006 73.300003 61C 74.199997 57.400002 70.300003 53.800003 66.699997 54.400002C 63.100002 55 60.699997 57.400002 60.100002 61M 78.399994 80.199997C 76 75.699997 71.199997 71.199997 66.699997 73C 64 74.199997 60.399998 73.300003 58.899998 75.699997M 65.5 11.5C 61.899998 12.7 58 10.6 54.699997 11.8C 52.599998 12.4 50.199997 12.1 49 13.6C 46 16.9 42.699997 20.5 38.5 21.4C 35.800003 22.299999 35.800003 25.900002 34 28C 32.799999 29.799999 33.099998 32.5 32.200001 34.599998C 31.299999 36.699997 31.900002 38.800003 32.200001 40.900002C 33.099998 43.300003 35.800003 43.900002 38.199997 43.300003C 39.400002 43 40.300003 41.800003 40.900002 40.599998C 42.099998 37.599998 41.5 34 43 31C 43.300003 30.400002 44.199997 29.799999 44.800003 28.900002C 46.900002 26.799999 49.300003 24.700001 52.300003 24.099998C 54.099998 23.799999 55.900002 22.599998 57.099998 23.799999C 58 24.700001 60.100002 25.599998 60.699997 26.799999C 61.600002 28.599998 61 30.700001 60.100002 32.5C 58.600002 34.900002 55.599998 35.800003 54.400002 37.900002C 53.199997 40 52.900002 41.800003 53.800003 44.199997C 55.900002 45.699997 57.699997 44.5 60.100002 43.300003C 63.699997 41.800003 66.699997 38.5 70.300003 36.400002C 71.199997 35.800003 71.5 34.599998 72.100006 33.700001C 73.300003 31.900002 73 29.200001 74.199997 27.099998"></path><path d="M 35.907997 57.369999C 35.907104 62.995655 40.467346 67.556618 46.093002 67.556618C 51.718651 67.556618 56.278893 62.995655 56.278 57.369999C 56.278893 51.744347 51.718651 47.18338 46.093002 47.18338C 40.467346 47.18338 35.907104 51.744347 35.907997 57.369999M 30.478001 80.5C 32.833492 74.024605 38.940968 69.674728 45.830605 69.565544C 52.720238 69.456345 58.962494 73.610504 61.521999 80.008003M 18.694 60.990997C 18.694 64.616196 21.632803 67.555 25.257999 67.555C 28.883198 67.555 31.822001 64.616196 31.822001 60.990997C 31.822001 57.365803 28.883198 54.427002 25.257999 54.427002C 21.632803 54.427002 18.694 57.365803 18.694 60.990997M 33.168999 75.757004C 30.911947 73.98745 28.12603 73.027115 25.257999 73.029999C 20.396446 73.043015 15.951465 75.776962 13.747 80.110001M 60.178001 60.990997C 60.178001 64.616196 63.116802 67.555 66.741997 67.555C 70.367195 67.555 73.306 64.616196 73.306 60.990997C 73.306 57.365803 70.367195 54.427002 66.741997 54.427002C 63.116802 54.427002 60.178001 57.365803 60.178001 60.990997M 78.252998 80.110001C 76.048531 75.776962 71.603554 73.043015 66.741997 73.029999C 63.922672 73.023819 61.180389 73.949867 58.942001 75.664001M 65.5 11.5L 54.568001 11.8C 52.565952 11.85655 50.629608 12.526783 49.021 13.72L 38.560001 21.480999C 36.362934 23.114714 34.77821 25.438976 34.060001 28.080999L 32.260002 34.725998C 31.544945 36.763756 31.536491 38.982861 32.236 41.026001C 33.329334 43.162819 35.833027 44.163528 38.098 43.368999C 39.430378 42.944691 40.450539 41.864452 40.798004 40.510002L 43.042 31.125999C 43.410194 30.25581 44.029606 29.515234 44.820999 28.999001L 52.336002 24.099998C 53.736824 23.183702 55.515766 23.069813 57.021999 23.799999C 58.222 24.400002 60.340004 25.557999 60.808002 26.757999C 61.732841 28.660126 61.404793 30.933868 59.98 32.496998L 54.355 37.984001C 52.630306 39.55809 52.342598 42.168022 53.682999 44.079998C 55.407997 46.135002 57.832001 44.926003 60.07 43.378002L 70.18 36.382C 71.064194 35.767555 71.716125 34.873661 72.030998 33.844002L 74.131004 26.976999"></path></g></g></g><g id="g-root-tx_ejecutiv_18f2zww104rcp1-stroke" data-item-order="0" transform="translate(38, 263)"></g><g id="g-root-moni_3dv0w104hj4d-stroke" data-item-order="0" transform="translate(225.76190185546875, 260.02783203125)"><g id="moni_3dv0w104hj4d-stroke" fill="none" stroke-linecap="round" stroke-linejoin="round" stroke-miterlimit="4" stroke="#4f92ff" stroke-width="2"><g><path d="M 44.949997 23.200001C 45.099998 23.950001 44.349998 24.700001 43.449997 24.700001C 38.949997 24.25 34.449997 24.549999 29.950001 24.700001C 29.049999 24.700001 28.299999 24.099998 28.450001 23.200001C 28.599998 19.6 28.599998 16.15 28.450001 12.7C 28.299999 11.8 28.900002 11.2 29.950001 11.2C 34.300003 11.05 38.949997 10.9 43.449997 11.2C 44.199997 11.2 44.800003 11.8 44.949997 12.7C 45.400002 16.15 45.25 19.6 44.949997 23.200001M 36.699997 24.700001C 36.400002 26.049999 36.699997 27.700001 36.699997 29.200001M 33.700001 29.200001C 35.5 29.650002 37.75 28.599998 39.699997 29.200001M 10 10M 32.650002 20.200001C 33.549999 19.15 34.300003 17.950001 34.599998 16.75C 35.800003 17.65 36.849998 19 38.349998 19.75C 39.550003 18.700001 40.300003 17.200001 40.599998 15.7M 35.050003 43.300003C 33.849998 42.25 32.349998 41.5 31.75 40C 33.25 39.400002 33.849998 37.75 35.050003 36.699997M 40.75 35.5C 40 37.900002 38.800003 39.550003 36.25 40C 34.75 40.300003 33.25 40 31.75 40M 10 10M 19.299999 12.7C 20.5 13.75 21.85 14.65 22.75 16C 21.549999 17.049999 20.5 18.25 19.299999 19.299999M 13.75 20.5C 14.2 17.950001 15.7 15.7 18.25 16C 19.75 16.15 21.4 16.6 22.75 16M 18.1 38.650002C 21.1 38.349998 23.799999 36.25 23.349998 33.400002C 23.049999 30.400002 20.950001 28.75 18.1 28.150002C 15.4 27.400002 13.45 30.549999 12.85 33.400002C 12.4 36.099998 15.55 37.449997 18.1 38.650002M 23.349998 33.25C 22.599998 33.549999 21.549999 33.25 20.65 33.700001C 18.25 34.599998 14.95 32.799999 13.6 30.700001M 25.299999 44.949997C 24.700001 41.949997 21.4 40.75 18.25 40.150002C 14.95 39.400002 11.65 42.099998 11.2 44.949997"></path><path d="M 44.875 23.125C 44.875 24.025002 44.275002 24.625 43.375 24.625L 29.875 24.625C 28.974998 24.625 28.375 24.025002 28.375 23.125L 28.375 12.625C 28.375 11.725 28.974998 11.125 29.875 11.125L 43.375 11.125C 44.275002 11.125 44.875 11.725 44.875 12.625L 44.875 23.125ZM 36.625 24.625L 36.625 29.125M 33.625 29.125L 39.625 29.125M 10 10M 32.650002 20.125L 34.599998 16.674999L 38.349998 19.674999L 40.599998 15.625M 35.050003 43.300003L 31.75 40L 35.050003 36.699997M 40.75 35.5C 40.75 38.050003 38.800003 40 36.25 40L 31.75 40M 10 10M 19.299969 12.699986L 22.749969 15.999985L 19.299969 19.299984M 13.749955 20.5C 13.749955 17.950001 15.699955 16 18.249954 16L 22.749956 16M 18.174925 38.574997C 21.074425 38.574997 23.424925 36.224499 23.424925 33.325001C 23.424925 30.425499 21.074425 28.075001 18.174925 28.075001C 15.27544 28.075001 12.924925 30.425499 12.924925 33.325001C 12.924925 36.224499 15.27544 38.574997 18.174925 38.574997ZM 23.424925 33.174999C 22.524925 33.474998 21.624926 33.625 20.724926 33.625C 18.024925 33.625 15.474925 32.424999 13.674925 30.625M 25.224998 44.875C 24.174999 42.025002 21.475 40.074997 18.174999 40.074997C 14.875 40.074997 12.175 42.175003 11.125 44.875"></path></g></g></g><g id="g-root-code_1d0irtc104lqmg-stroke" data-item-order="0" transform="translate(414.23297119140625, 260.0400390625)"><g id="code_1d0irtc104lqmg-stroke" fill="none" stroke-linecap="round" stroke-linejoin="round" stroke-miterlimit="4" stroke="#4f92ff" stroke-width="2"><g><path d="M 23.799999 16.15C 23.650002 14.95 23.650002 13.75 23.799999 12.7C 23.799999 11.8 24.400002 11.05 25.299999 11.2C 29.950001 11.95 34.75 11.05 39.699997 11.2C 39.849998 11.2 40.449997 11.35 40.599998 11.5C 41.650002 12.55 43.300003 13.15 44.199997 14.5C 44.349998 14.8 44.800003 15.25 44.800003 15.7C 43.75 21.85 44.5 28.150002 44.800003 34.449997C 44.800003 35.349998 44.050003 35.800003 43.300003 35.949997C 39.550003 36.699997 35.5 34.599998 32.049999 35.949997M 10 10M 29.799999 17.5C 29.049999 18.4 28.150002 19 27.549999 19.75C 27.849998 20.65 28.900002 21.25 29.799999 22M 10 10M 38.800003 17.5C 39.400002 18.25 40.150002 19.15 41.050003 19.75C 40.449997 20.65 39.550003 21.25 38.800003 22M 10 10M 32.799999 22.75C 33.25 20.35 34.599998 18.1 35.800003 16M 30.400002 44.800003C 29.349998 40.75 25.150002 38.5 20.799999 38.050003C 16.6 37.599998 13.15 41.199997 11.2 44.800003M 20.799999 24.549999C 20.950001 23.049999 20.65 21.549999 20.799999 20.049999M 12.4 28.900002C 17.950001 29.799999 23.650002 30.25 28.900002 28.900002M 14.5 30.549999C 14.8 33.849998 17.5 36.099998 20.65 36.550003C 24.099998 37 26.950001 33.849998 26.799999 30.400002C 26.799999 29.5 26.799999 28.599998 26.799999 27.700001C 27.099998 24.25 23.950001 22.900002 20.65 21.549999C 17.65 20.35 14.5 24.25 14.5 27.549999C 14.35 28.599998 14.65 29.650002 14.5 30.549999"></path><path d="M 23.725029 16.131266L 23.725029 12.681265C 23.725029 11.781265 24.325031 11.181259 25.224998 11.181259L 39.625 11.181259C 39.925003 11.181259 40.375 11.331259 40.525002 11.481259L 44.125 14.481265C 44.425003 14.781265 44.724998 15.231265 44.724998 15.681265L 44.724998 34.431252C 44.724998 35.331253 44.125 35.931252 43.224998 35.931252L 31.974998 35.931252M 10 10M 29.724998 17.481236L 27.474998 19.731236L 29.724998 21.981236M 10 10M 38.724998 17.481236L 40.974998 19.731236L 38.724998 21.981236M 10 10M 32.724998 22.731281L 35.724998 15.98128M 30.325001 44.818748C 28.974998 40.918747 25.224998 38.068748 20.874969 38.068748C 16.524969 38.068748 12.624969 40.918747 11.274964 44.818748M 20.725 24.568735L 20.725 20.068735M 12.47485 28.918751L 28.97485 28.918751M 14.57485 30.568748C 14.72485 33.868752 17.42485 36.568748 20.72485 36.568748C 24.17485 36.568748 26.874849 33.868752 26.874849 30.418751L 26.874849 27.71875C 26.874849 24.268736 24.17485 21.568735 20.72485 21.568735C 17.42485 21.568735 14.72485 24.268736 14.57485 27.568748L 14.57485 30.568748Z"></path></g></g></g><g id="g-root-tx_especial_18gyf68104rbpe-stroke" data-item-order="0" transform="translate(398, 35)"></g><g id="g-root-tx_diseador_8xrx3k104rabz-stroke" data-item-order="0" transform="translate(398, 395)"></g><g id="g-root-tx_desarrol_24wuo104rbwg-stroke" data-item-order="0" transform="translate(506, 275)"></g><g id="g-root-woma_qrjtxs104ivie-stroke" data-item-order="0" transform="translate(280.96038818359375, 315.2333984375)"><g id="woma_qrjtxs104ivie-stroke" fill="none" stroke-linecap="round" stroke-linejoin="round" stroke-miterlimit="4" stroke="#4f92ff" stroke-width="2"><g><path d="M 31.599998 24.400002C 30.549999 26.200001 29.349998 28 28 29.5C 26.650002 27.849998 25.450001 26.200001 24.400002 24.400002M 35.5 31.75C 35.5 31.450001 35.5 31.299999 35.5 31C 34.75 26.950001 32.200001 23.650002 28 23.5C 23.799999 23.349998 19.299999 27.099998 20.5 31C 20.5 31.299999 20.5 31.450001 20.5 31.75M 34.75 21.25C 34 19.75 33.700001 18.25 33.25 16.75C 33.099998 16.450001 33.25 16.299999 33.25 16C 33.400002 13.15 30.849998 10.75 28 10.75C 25.150002 10.75 22.599998 13.15 22.75 16C 22.75 16.299999 22.75 16.450001 22.75 16.75C 22.599998 18.4 22.150002 19.9 21.25 21.25M 33.25 16.75C 31.299999 16.299999 28.75 16.299999 28 14.5C 26.950001 16.15 24.700001 16.299999 22.75 16.75M 32.5 16.75C 31.599998 19 30.400002 21.85 28 21.25C 25.599998 20.65 23.5 19.15 23.5 16.75M 35.349998 38.5C 35.349998 38.050003 35.800003 37.75 36.25 37.75C 38.199997 37.900002 40.300003 38.199997 42.25 37.75C 42.699997 37.599998 43.150002 38.050003 43.150002 38.5C 43 40.300003 43.599998 42.099998 44.5 43.599998C 44.5 43.75 44.5 43.75 44.5 43.900002C 44.5 44.650002 43.900002 44.949997 43.150002 45.25C 40.75 46.150002 37.900002 45.25 35.349998 45.25C 34.599998 45.25 34 44.650002 34 43.900002C 34 43.75 34 43.75 34 43.599998C 34.900002 42.099998 34.599998 40 35.349998 38.5M 37 37.75C 37.300003 36.849998 37.300003 35.650002 37.449997 34.75C 37.75 33.849998 38.349998 33.099998 39.25 33.25C 40.150002 33.400002 40.900002 33.849998 41.050003 34.75C 41.050003 35.800003 41.5 36.699997 41.5 37.75M 20.65 38.5C 20.65 38.050003 20.200001 37.599998 19.75 37.75C 17.799999 38.349998 15.7 37.300003 13.75 37.75C 13.3 37.900002 13 38.050003 12.85 38.5C 12.25 40.150002 11.95 41.949997 11.5 43.599998C 11.5 43.75 11.5 43.75 11.5 43.900002C 11.35 44.650002 12.1 45.099998 12.85 45.25C 15.4 45.849998 18.25 46.150002 20.65 45.25C 21.4 44.949997 21.700001 44.650002 22 43.900002C 22 43.75 22 43.75 22 43.599998C 21.25 41.949997 20.5 40.150002 20.65 38.5M 19 37.75C 18.700001 36.849998 19 35.650002 18.549999 34.75C 18.1 34 17.65 33.400002 16.75 33.25C 15.85 33.099998 15.1 33.849998 14.95 34.75C 14.95 35.800003 14.95 36.849998 14.5 37.75"></path><path d="M 31.627001 24.4345L 28 29.5L 24.383499 24.428501M 35.5 31.75L 35.5 31C 35.5 26.857864 32.142136 23.5 28 23.5C 23.857864 23.5 20.5 26.857864 20.5 31L 20.5 31.75M 34.75 21.25C 33.707066 19.98913 33.172173 18.384457 33.25 16.75L 33.25 16C 33.25 13.100505 30.899494 10.75 28.000002 10.75C 25.100506 10.75 22.750002 13.100505 22.750002 16L 22.75 16.75C 22.827826 18.384457 22.292933 19.98913 21.25 21.25M 33.25 16.75C 31.2477 16.84399 29.312836 16.014763 28 14.5C 26.687164 16.014763 24.7523 16.84399 22.75 16.75M 32.5 16.719999C 32.5 19.20528 30.485283 21.219999 28 21.219999C 25.514719 21.219999 23.5 19.20528 23.5 16.719999M 35.318501 38.477501C 35.425224 38.049946 35.809326 37.749962 36.25 37.75L 42.25 37.75C 42.69067 37.749962 43.074772 38.049946 43.181499 38.477497L 44.459499 43.591C 44.486511 43.69688 44.500118 43.805729 44.5 43.915001C 44.499172 44.651958 43.901958 45.249172 43.165001 45.25L 35.334999 45.25C 34.598042 45.249172 34.000828 44.651958 34 43.915001C 33.999882 43.805729 34.013489 43.69688 34.040501 43.591ZM 37 37.75L 37.504002 34.729C 37.646034 33.875298 38.384563 33.249489 39.25 33.249489C 40.115437 33.249489 40.853966 33.875298 40.995998 34.729L 41.5 37.75M 20.681499 38.477501C 20.574776 38.049946 20.190672 37.749962 19.75 37.75L 13.75 37.75C 13.309329 37.749962 12.925225 38.049946 12.8185 38.477497L 11.5405 43.591C 11.513489 43.69688 11.499883 43.805729 11.5 43.915001C 11.500827 44.651958 12.098042 45.249172 12.835 45.25L 20.665001 45.25C 21.401958 45.249172 21.999172 44.651958 22 43.915001C 22.000118 43.805729 21.986511 43.69688 21.959499 43.591ZM 19 37.75L 18.496 34.729C 18.353966 33.875298 17.615437 33.249489 16.75 33.249489C 15.884564 33.249489 15.146033 33.875298 15.004 34.729L 14.5 37.75"></path></g></g></g><g id="g-root-app_1luwtw0104ka9z-stroke" data-item-order="0" transform="translate(359.02764892578125, 315.23828125)"><g id="app_1luwtw0104ka9z-stroke" fill="none" stroke-linecap="round" stroke-linejoin="round" stroke-miterlimit="4" stroke="#4f92ff" stroke-width="2"><g><path d="M 30.549999 39.25C 24.099998 39.25 17.5 38.199997 11.05 39.25M 20.799999 41.949997C 20.950001 41.949997 21.1 42.099998 21.25 42.25C 21.25 42.400002 20.950001 42.550003 20.799999 42.699997C 20.65 42.699997 20.5 42.400002 20.5 42.25C 20.35 42.099998 20.65 41.949997 20.799999 41.949997M 20.799999 41.949997M 30.549999 37.599998C 30.400002 39.099998 30.099998 40.75 30.549999 42.25C 31 43.900002 29.200001 45.400002 27.549999 45.25C 23.049999 44.800003 18.4 46.599998 14.05 45.25C 12.4 44.800003 11.35 43.900002 11.05 42.25C 9.7 32.799999 11.05 23.200001 11.05 13.75C 11.05 12.1 12.4 10.3 14.05 10.75C 18.4 12.1 23.200001 11.8 27.549999 10.75C 29.200001 10.3 29.950001 12.25 30.549999 13.75C 30.849998 14.5 30.400002 15.4 30.549999 16.15M 21.549999 16C 19.299999 17.35 16.6 18.1 14.8 19.9C 16.6 21.700001 19.299999 22.599998 21.549999 23.950001C 23.349998 21.85 26.5 21.85 28.299999 19.9C 26.349998 18.1 23.950001 16.9 21.549999 16M 28.299999 19.9C 28.900002 22.450001 27.25 25.450001 28.299999 27.849998C 25.900002 28.900002 23.349998 29.950001 21.549999 31.75C 19.15 30.849998 17.049999 29.200001 14.8 27.849998C 14.2 25.299999 14.05 22.450001 14.8 19.9M 21.549999 23.950001C 21.25 26.5 22.150002 29.200001 21.549999 31.75M 38.5 25.900002C 40.75 21.700001 41.650002 16.6 44.800003 13C 45.099998 12.55 45.099998 11.95 44.800003 11.5C 44.349998 11.05 43.900002 10.75 43.449997 10.75C 42.849998 10.75 42.25 11.05 42.099998 11.65C 40.900002 16.299999 35.650002 19.299999 34.75 24.099998M 29.650002 32.5C 29.349998 32.650002 29.200001 33.099998 29.349998 33.400002C 29.349998 33.700001 29.650002 34 29.950001 34C 35.199997 33.849998 38.5 30.849998 39.099998 28.299999C 39.550003 26.349998 37.900002 24.400002 35.800003 24.099998C 33.849998 23.799999 32.349998 25.450001 31.599998 27.25C 30.700001 29.5 31.299999 30.700001 29.650002 32.5"></path><path d="M 30.5455 39.25L 11.0455 39.25M 20.799999 41.875C 21.007107 41.875 21.174999 42.042892 21.174999 42.25L 21.174999 42.25C 21.174999 42.457108 21.007107 42.625 20.799999 42.625L 20.799999 42.625C 20.592894 42.625 20.424999 42.457108 20.424999 42.25L 20.424999 42.25C 20.424999 42.042892 20.592894 41.875 20.799999 41.875M 20.7955 41.875L 20.7955 41.875M 30.549999 37.591L 30.549999 42.25C 30.549999 43.906857 29.206854 45.25 27.549999 45.25L 14.05 45.25C 12.393146 45.25 11.05 43.906857 11.05 42.25L 11.05 13.75C 11.05 12.093145 12.393146 10.75 14.05 10.75L 27.549999 10.75C 29.206854 10.75 30.549999 12.093145 30.549999 13.75L 30.549999 16.1845M 21.5455 16L 14.7955 19.9375L 21.5455 23.875L 28.2955 19.9375L 21.5455 16ZM 28.2955 19.9375L 28.2955 27.8125L 21.5455 31.75L 14.7955 27.8125L 14.7955 19.9375M 21.5455 23.875L 21.5455 31.75M 38.558498 25.945L 44.778999 13C 45.048668 12.525086 45.03891 11.941135 44.753521 11.475498C 44.468132 11.009861 43.952225 10.736129 43.406647 10.760877C 42.861073 10.785624 42.372059 11.104938 42.130001 11.5945L 34.802498 24.099998M 29.696499 32.552498C 29.417955 32.716011 29.273079 33.037632 29.335188 33.354591C 29.397297 33.671555 29.652843 33.914711 29.9725 33.961002C 35.206001 34.739502 38.657501 30.961 39.025002 28.341999C 39.314571 26.29101 37.886856 24.393538 35.835915 24.103622C 33.784969 23.813709 31.887259 25.241106 31.597 27.292C 31.259501 29.702499 31.790501 31.315001 29.696499 32.552498Z"></path></g></g></g><g id="g-root-tx_pickeryp_m8lyds104rbwu-stroke" data-item-order="0" transform="translate(158, 395)"></g><g id="g-root-tx_instrume_4g2zps104rc3v-stroke" data-item-order="0" transform="translate(110, 11)"></g></g></g></svg>